<?xml version="1.0" encoding="UTF-8" standalone="no"?> <!-- Created with Vectornator for iOS (http://vectornator.io/) --><!DOCTYPE svg PUBLIC "-//W3C//DTD SVG 1.1//EN" "http://www.w3.org/Graphics/SVG/1.1/DTD/svg11.dtd">
<svg height="100%" style="fill-rule:nonzero;clip-rule:evenodd;stroke-linecap:round;stroke-linejoin:round;" xmlns:xlink="http://www.w3.org/1999/xlink" xmlns="http://www.w3.org/2000/svg" xml:space="preserve" width="100%" xmlns:vectornator="http://vectornator.io" version="1.1" viewBox="0 0 440 96">
<metadata>
<vectornator:setting key="SnapToGuides" value="1"/>
<vectornator:setting key="RulersVisible" value="1"/>
<vectornator:setting key="SnapToEdges" value="0"/>
<vectornator:setting key="GuidesVisible" value="0"/>
<vectornator:setting key="SnapToGrid" value="0"/>
<vectornator:setting key="PencilOnly" value="0"/>
<vectornator:setting key="DimensionsVisible" value="0"/>
<vectornator:setting key="Units" value="Points"/>
<vectornator:setting key="CMYKEnabledKey" value="0"/>
<vectornator:setting key="IsolateActiveLayer" value="0"/>
<vectornator:setting key="DynamicGuides" value="1"/>
<vectornator:setting key="TimeLapseWatermarkDisabled" value="0"/>
<vectornator:setting key="OutlineMode" value="0"/>
<vectornator:setting key="SnapToPoints" value="0"/>
<vectornator:setting key="doHistoryDisabled" value="0"/>
<vectornator:setting key="DisplayWhiteBackground" value="0"/>
</metadata>
<defs>
<linearGradient y1="78.6118" id="LinearGradient" x1="46.7363" y2="172.974" x2="118.928" gradientUnits="userSpaceOnUse" gradientTransform="matrix(1 0 0 1 -44.3779 -73.7444)">
<stop stop-color="#12ac81" offset="0"/>
<stop stop-color="#12ac81" offset="0.176471"/>
<stop stop-color="#ffffff" offset="0.178571"/>
<stop stop-color="#ffffff" offset="0.294118"/>
<stop stop-color="#12ac81" offset="0.296218"/>
<stop stop-color="#12ac81" offset="0.42437"/>
<stop stop-color="#ffffff" offset="0.42437"/>
<stop stop-color="#ffffff" offset="0.565126"/>
<stop stop-color="#12ac81" offset="0.567227"/>
<stop stop-color="#12ac81" offset="0.710084"/>
<stop stop-color="#ffffff" offset="0.710084"/>
<stop stop-color="#ffffff" offset="0.863445"/>
<stop stop-color="#12ac81" offset="0.865546"/>
<stop stop-color="#12ac81" offset="1"/>
</linearGradient>
<linearGradient y1="89.1315" id="LinearGradient_2" x1="130.499" y2="172.994" x2="191.338" gradientUnits="userSpaceOnUse" gradientTransform="matrix(1 0 0 1 -44.3779 -73.7444)">
<stop stop-color="#d13f3f" offset="0"/>
<stop stop-color="#d13f3f" offset="0.176471"/>
<stop stop-color="#ffffff" offset="0.178571"/>
<stop stop-color="#ffffff" offset="0.304622"/>
<stop stop-color="#d13f3f" offset="0.306723"/>
<stop stop-color="#d13f3f" offset="0.478992"/>
<stop stop-color="#ffffff" offset="0.481092"/>
<stop stop-color="#ffffff" offset="0.630252"/>
<stop stop-color="#d13f3f" offset="0.632353"/>
<stop stop-color="#d13f3f" offset="0.813025"/>
<stop stop-color="#ffffff" offset="0.817227"/>
<stop stop-color="#ffffff" offset="0.882353"/>
<stop stop-color="#d13f3f" offset="0.882353"/>
<stop stop-color="#d13f3f" offset="1"/>
</linearGradient>
<linearGradient y1="90.4549" id="LinearGradient_3" x1="422.18" y2="161.456" x2="457.294" gradientUnits="userSpaceOnUse" gradientTransform="matrix(1 0 0 1 -27.6221 -73.7444)">
<stop stop-color="#d13f3f" offset="0"/>
<stop stop-color="#d13f3f" offset="0.176471"/>
<stop stop-color="#ffffff" offset="0.178571"/>
<stop stop-color="#ffffff" offset="0.304622"/>
<stop stop-color="#d13f3f" offset="0.306723"/>
<stop stop-color="#d13f3f" offset="0.478992"/>
<stop stop-color="#ffffff" offset="0.481092"/>
<stop stop-color="#ffffff" offset="0.630252"/>
<stop stop-color="#d13f3f" offset="0.632353"/>
<stop stop-color="#d13f3f" offset="0.813025"/>
<stop stop-color="#ffffff" offset="0.817227"/>
<stop stop-color="#ffffff" offset="0.882353"/>
<stop stop-color="#d13f3f" offset="0.882353"/>
<stop stop-color="#d13f3f" offset="1"/>
</linearGradient>
<linearGradient y1="97.0451" id="LinearGradient_4" x1="345.69" y2="164.112" x2="384.34" gradientUnits="userSpaceOnUse" gradientTransform="matrix(1 0 0 1 -27.6221 -73.7444)">
<stop stop-color="#12ac81" offset="0"/>
<stop stop-color="#12ac81" offset="0.176471"/>
<stop stop-color="#ffffff" offset="0.178571"/>
<stop stop-color="#ffffff" offset="0.294118"/>
<stop stop-color="#12ac81" offset="0.296218"/>
<stop stop-color="#12ac81" offset="0.42437"/>
<stop stop-color="#ffffff" offset="0.42437"/>
<stop stop-color="#ffffff" offset="0.565126"/>
<stop stop-color="#12ac81" offset="0.567227"/>
<stop stop-color="#12ac81" offset="0.710084"/>
<stop stop-color="#ffffff" offset="0.710084"/>
<stop stop-color="#ffffff" offset="0.863445"/>
<stop stop-color="#12ac81" offset="0.865546"/>
<stop stop-color="#12ac81" offset="1"/>
</linearGradient>
<linearGradient y1="97.4911" id="LinearGradient_5" x1="256.988" y2="160.883" x2="326.47" gradientUnits="userSpaceOnUse" gradientTransform="matrix(1 0 0 1 -27.6221 -73.7444)">
<stop stop-color="#d13f3f" offset="0"/>
<stop stop-color="#d13f3f" offset="0.176471"/>
<stop stop-color="#ffffff" offset="0.178571"/>
<stop stop-color="#ffffff" offset="0.304622"/>
<stop stop-color="#d13f3f" offset="0.306723"/>
<stop stop-color="#d13f3f" offset="0.478992"/>
<stop stop-color="#ffffff" offset="0.481092"/>
<stop stop-color="#ffffff" offset="0.630252"/>
<stop stop-color="#d13f3f" offset="0.632353"/>
<stop stop-color="#d13f3f" offset="0.813025"/>
<stop stop-color="#ffffff" offset="0.817227"/>
<stop stop-color="#ffffff" offset="0.882353"/>
<stop stop-color="#d13f3f" offset="0.882353"/>
<stop stop-color="#d13f3f" offset="1"/>
</linearGradient>
</defs>
<g id="圖層1" vectornator:layerName="圖層1">
<g opacity="1">
<path stroke="#1f212b" stroke-width="1.90218" d="M191.934+27.5121C188.622+29.0885+186.647+63.2557+186.647+63.2557L186.216+87.0698C186.216+89.5272+186.337+93.8957+189.536+94.0879C193.118+94.3031+195.462+94.3102+197.617+94.2103C201.272+94.0409+201.054+89.926+201.054+89.926L200.446+65.6706C200.446+63.2122+200.057+29.2858+195.993+28.1135C195.843+28.0706+195.017+26.0449+191.934+27.5121Z" fill="#12ac81" stroke-linecap="butt" opacity="1" stroke-linejoin="round"/>
<path stroke="#000000" stroke-width="0.353431" d="M47.7858+0.560538C41.3959+0.560538+35.3682+1.6236+29.7647+3.68814C24.1612+5.75173+19.2954+8.7916+15.1174+12.8217C10.9392+16.8528+7.65129+21.7845+5.24273+27.6337C2.83417+33.4829+1.62205+40.2907+1.62205+47.9589C1.62215+56.2171+2.90053+63.3244+5.40728+69.2716C7.91412+75.2188+11.2856+80.1179+15.611+84.0015C19.9367+87.8841+25.0343+90.7737+30.8345+92.6413C36.6346+94.5099+42.8451+95.4395+49.4316+95.4395C58.5741+95.4395+65.3662+94.0441+69.8394+91.2423C74.3119+88.4413+76.3111+86.5084+77.0625+83.9968C77.7503+81.6952+78.7798+77.3869+75.1687+73.4343C71.5586+69.4825+65.9756+71.8933+63.1738+72.9751C60.3721+74.0559+57.0006+74.6205+52.97+74.6205C45.4005+74.6205+39.3395+72.3283+34.8665+67.7083C30.3935+63.0873+28.2012+56.512+28.2012+47.9589C28.2011+39.5048+30.1777+32.9127+34.2083+28.2917C38.239+23.6717+44.0838+21.3795+51.6534+21.3795C55.4875+21.3795+58.7925+22.0104+61.6926+23.1901C64.5926+24.3699+68.2471+26.2095+70.4106+25.6672C72.574+25.124+73.9358+24.1608+75.0465+22.1887C76.2486+20.0532+77.0139+18.2649+76.7395+15.7991C76.2281+11.2071+73.7342+7.95348+68.7698+5.00414C63.8048+2.0548+56.8301+0.560538+47.7858+0.560538Z" fill="url(#LinearGradient)" stroke-linecap="butt" opacity="1" stroke-linejoin="round"/>
<path stroke="#000000" stroke-width="0.353431" d="M121.935+18.9118C72.2607+18.854+70.8476+94.9594+121.935+95.0993C173.298+95.2403+171.611+18.9706+121.935+18.9118ZM121.935+38.5056C126.064+38.5056+129.299+40.0599+131.56+43.2556C133.821+46.4504+134.935+51.0444+134.935+56.9431C134.935+62.8418+133.864+67.4176+131.653+70.6618C129.441+73.9061+126.22+75.5368+122.091+75.5368C117.962+75.5368+114.776+73.9504+112.466+70.7556C110.156+67.5608+108.997+62.9397+108.997+56.9431C108.997+51.0444+110.111+46.4504+112.372+43.2556C114.633+40.0599+117.805+38.5056+121.935+38.5056Z" fill="url(#LinearGradient_2)" stroke-linecap="butt" opacity="1" stroke-linejoin="round"/>
<path stroke="#000000" stroke-width="0.35" d="M408.59+18.7465C403.773+18.7465+399.323+19.3112+395.341+20.392C391.359+21.4737+387.988+22.9521+385.138+24.9187C382.286+26.8843+380.045+29.3753+378.472+32.3247C376.899+35.2731+376.168+38.5612+376.168+42.1984C376.168+48.8839+378.244+53.9985+382.422+57.5872C386.6+61.1749+392.96+63.8153+401.513+65.486L405.957+66.3913C408.709+66.8832+410.619+67.4973+411.798+68.2841C412.978+69.0709+413.609+70.1172+413.609+71.4939C413.609+72.9685+412.763+74.1473+411.14+75.0321C409.518+75.9169+407.193+76.4312+404.146+76.4312C399.329+76.4312+395.078+75.7667+391.391+74.5384C389.855+74.026+388.392+73.4847+387.004+72.9135C385.061+72.1155+383.315+71.1205+381.633+71.5629C379.95+72.0053+379.044+72.7511+378.06+74.3732C377.078+75.9963+376.579+78.0216+376.579+80.3811C376.579+82.9365+377.293+85.1784+378.719+87.046C380.144+88.9136+382.137+90.4256+384.644+91.6539C387.15+92.8831+390.156+93.78+393.696+94.3699C397.235+94.9598+401.087+95.2752+405.216+95.2752C416.128+95.2752+424.381+93.1659+429.984+88.9388C435.587+84.7117+438.378+78.8821+438.378+71.4108C438.378+65.4141+436.353+60.4665+432.371+56.6819C428.389+52.8963+421.73+49.9572+412.292+47.7947L407.684+46.7251C404.932+46.1352+403.072+45.5201+402.089+44.8323C401.105+44.1435+400.608+43.2801+400.608+42.1984C400.608+40.6257+401.471+39.4796+403.241+38.7423C405.01+38.0059+407.567+37.5905+410.811+37.5905C412.385+37.5905+414.079+37.7893+415.996+38.0843C417.913+38.3792+419.806+38.7115+421.673+39.1539C423.541+39.5963+425.284+40.0947+426.858+40.6351C428.43+41.1764+429.564+41.5815+431.016+41.2025C432.469+40.8245+435.101+38.4277+435.634+33.3728C435.881+31.0264+434.158+27.8727+432.783+26.1525C431.406+24.4324+429.546+23.0371+427.186+21.9563C424.827+20.8745+421.989+20.1101+418.793+19.5697C415.598+19.0284+412.227+18.7465+408.59+18.7465Z" fill="url(#LinearGradient_3)" stroke-linecap="butt" opacity="1" stroke-linejoin="round"/>
<path stroke="#000000" stroke-width="0.35" d="M352.222+18.9939C349.371+18.9939+346.515+19.2916+343.664+19.734C340.813+20.1764+338.089+20.7579+335.435+21.5447C332.781+22.3305+330.339+23.2275+328.029+24.2597C325.719+25.292+323.76+26.4381+322.186+27.7159C320.614+28.9945+319.401+30.4552+318.566+32.0773C317.731+33.6995+317.332+35.6585+317.332+37.92L317.332+82.1087C317.332+84.5661+317.981+90.0532+320.498+91.9283C323.195+93.9359+322.982+94.0161+330.583+93.9424C337.966+93.8715+337.902+93.6111+339.437+92.4677C342.533+90.1633+342.126+82.3653+342.126+82.3653L342.319+47.4577C342.319+47.4577+342.247+44.3497+343.525+42.7799C344.804+41.2109+345.219+41.2427+347.038+40.8003C348.856+40.3579+350.733+39.9584+352.798+39.5655C354.862+39.1725+357.054+38.8571+359.216+38.6601C361.379+38.4641+363.666+38.3503+364.942+37.5317C366.217+36.7132+366.641+36.0375+367.034+34.7103C367.427+33.3831+367.61+32.0549+367.61+30.6783C367.61+26.5492+366.166+23.6101+363.414+21.7911C360.661+19.9729+356.941+18.9939+352.222+18.9939Z" fill="url(#LinearGradient_4)" stroke-linecap="butt" opacity="1" stroke-linejoin="round"/>
<path stroke="#000000" stroke-width="0.35" d="M266.409+18.9118C216.735+18.854+215.322+94.9594+266.409+95.0993C317.772+95.2403+316.086+18.9706+266.409+18.9118ZM266.409+38.5056C270.538+38.5056+273.774+40.0599+276.034+43.2556C278.296+46.4504+279.409+51.0444+279.409+56.9431C279.409+62.8418+278.309+67.4176+276.097+70.6618C273.886+73.9061+270.695+75.5368+266.565+75.5368C262.436+75.5368+259.25+73.9504+256.94+70.7556C254.63+67.5608+253.472+62.9397+253.472+56.9431C253.472+51.0444+254.586+46.4504+256.847+43.2556C259.108+40.0599+262.28+38.5056+266.409+38.5056Z" fill="url(#LinearGradient_5)" stroke-linecap="butt" opacity="1" stroke-linejoin="round"/>
<path stroke="#1f212b" stroke-width="0.1" d="M212.561+56.9135C216.669+56.5575+219.68+55.5585+219.68+55.5585L206.465+40.0175C209.974+39.6525+212.68+38.5585+212.68+38.5585L194.18+16.5585L175.68+38.5585C175.68+38.5585+178.386+39.6525+181.895+40.0175L168.68+55.5585C168.68+55.5585+171.314+56.4835+174.868+56.8285L160.68+73.5585C160.68+73.5585+167.68+75.5585+193.68+75.5585C219.68+75.5585+226.68+73.5585+226.68+73.5585L212.561+56.9135Z" fill="#12ac81" stroke-linecap="butt" opacity="1" stroke-linejoin="round"/>
<path d="M162.538+72.9145L176.867+56.0185L174.965+55.8335C173.115+55.6535+171.517+55.3085+170.442+55.0305L183.887+39.2185L181.999+39.0225C180.119+38.8275+178.469+38.4095+177.387+38.0815L194.18+18.1125L210.973+38.0825C209.891+38.4095+208.241+38.8275+206.361+39.0235L204.473+39.2195L217.905+55.0155C216.67+55.3215+214.745+55.7215+212.475+55.9185L210.547+56.0855L224.822+72.9155C221.552+73.4695+212.715+74.5585+193.68+74.5585C174.644+74.5585+165.807+73.4695+162.538+72.9145ZM227.624+73.8285C227.64+73.7735+227.664+73.7215+227.67+73.6635C227.68+73.5725+227.664+73.4835+227.649+73.3925C227.643+73.3565+227.651+73.3215+227.641+73.2865C227.64+73.2835+227.638+73.2815+227.637+73.2775C227.613+73.1945+227.563+73.1205+227.517+73.0445C227.494+73.0065+227.481+72.9615+227.453+72.9275C227.449+72.9225+227.448+72.9155+227.444+72.9105L214.537+57.6965C217.714+57.2565+219.888+56.5435+219.995+56.5075C219.999+56.5065+220.001+56.5035+220.005+56.5015C220.12+56.4625+220.23+56.4035+220.328+56.3195C220.33+56.3175+220.331+56.3155+220.332+56.3145C220.421+56.2375+220.49+56.1425+220.547+56.0415C220.554+56.0295+220.567+56.0195+220.573+56.0075C220.639+55.8765+220.666+55.7295+220.669+55.5795C220.671+55.4685+220.664+55.3575+220.629+55.2515C220.628+55.2495+220.629+55.2465+220.628+55.2445C220.605+55.1745+220.559+55.1205+220.523+55.0595C220.494+55.0105+220.479+54.9565+220.441+54.9115L220.433+54.9025C220.432+54.9015+220.431+54.9005+220.43+54.8985L208.403+40.7525C211.075+40.2765+212.96+39.5235+213.055+39.4855C213.088+39.4725+213.11+39.4455+213.141+39.4285C213.203+39.3955+213.268+39.3705+213.324+39.3235C213.335+39.3145+213.339+39.3005+213.35+39.2915C213.404+39.2425+213.442+39.1835+213.483+39.1245C213.517+39.0755+213.557+39.0315+213.582+38.9785C213.609+38.9205+213.618+38.8595+213.634+38.7975C213.65+38.7345+213.671+38.6745+213.674+38.6095C213.677+38.5515+213.663+38.4945+213.655+38.4355C213.646+38.3645+213.64+38.2945+213.616+38.2255C213.611+38.2115+213.614+38.1975+213.608+38.1845C213.587+38.1335+213.548+38.0975+213.52+38.0515C213.493+38.0065+213.48+37.9565+213.445+37.9155L194.18+15.0045L174.915+37.9145C174.88+37.9555+174.867+38.0065+174.84+38.0505C174.812+38.0965+174.773+38.1325+174.752+38.1835C174.747+38.1965+174.749+38.2115+174.744+38.2245C174.72+38.2935+174.714+38.3635+174.705+38.4345C174.698+38.4935+174.683+38.5505+174.686+38.6085C174.689+38.6735+174.71+38.7335+174.726+38.7965C174.742+38.8585+174.751+38.9195+174.778+38.9775C174.803+39.0305+174.842+39.0745+174.877+39.1235C174.918+39.1825+174.956+39.2415+175.01+39.2905C175.02+39.3005+175.025+39.3135+175.036+39.3225C175.077+39.3565+175.127+39.3695+175.171+39.3965C175.217+39.4245+175.253+39.4635+175.305+39.4845C175.4+39.5235+177.284+40.2765+179.957+40.7515L167.918+54.9105C167.873+54.9635+167.854+55.0255+167.822+55.0835C167.795+55.1325+167.756+55.1725+167.736+55.2275C167.734+55.2325+167.736+55.2375+167.734+55.2415C167.706+55.3255+167.703+55.4115+167.698+55.4985C167.695+55.5425+167.68+55.5855+167.683+55.6295C167.688+55.6965+167.716+55.7595+167.734+55.8245C167.75+55.8825+167.756+55.9435+167.783+55.9985C167.804+56.0425+167.843+56.0765+167.872+56.1175C167.918+56.1845+167.96+56.2535+168.022+56.3075C168.026+56.3115+168.028+56.3165+168.032+56.3205C168.128+56.4015+168.235+56.4615+168.347+56.5005C168.348+56.5005+168.348+56.5015+168.349+56.5015C168.441+56.5345+170.259+57.1655+172.914+57.5855L159.917+72.9115C159.914+72.9155+159.913+72.9205+159.91+72.9235C159.871+72.9705+159.851+73.0305+159.821+73.0845C159.786+73.1475+159.743+73.2065+159.723+73.2735C159.722+73.2775+159.719+73.2795+159.718+73.2835C159.705+73.3285+159.714+73.3725+159.707+73.4165C159.696+73.4985+159.68+73.5785+159.689+73.6595C159.696+73.7235+159.722+73.7805+159.74+73.8415C159.759+73.9045+159.769+73.9675+159.8+74.0255C159.836+74.0945+159.892+74.1485+159.944+74.2075C159.976+74.2445+159.995+74.2885+160.033+74.3205C160.037+74.3235+160.041+74.3245+160.045+74.3275C160.071+74.3485+160.105+74.3595+160.133+74.3785C160.212+74.4305+160.292+74.4785+160.379+74.5055C160.389+74.5085+160.396+74.5165+160.406+74.5195C160.697+74.6035+167.837+76.5585+193.68+76.5585C219.523+76.5585+226.663+74.6035+226.955+74.5195C226.965+74.5165+226.972+74.5085+226.982+74.5055C227.068+74.4785+227.147+74.4315+227.225+74.3795C227.254+74.3605+227.289+74.3495+227.315+74.3275C227.319+74.3245+227.323+74.3235+227.327+74.3205C227.366+74.2875+227.386+74.2415+227.419+74.2045C227.469+74.1465+227.523+74.0935+227.559+74.0265C227.592+73.9645+227.604+73.8955+227.624+73.8285Z" opacity="1" fill="#1f212b"/>
<path d="M183.69+57.3725C183.684+57.3725+183.677+57.3725+183.671+57.3725C180.279+57.2475+177.202+57.0585+174.773+56.8265C174.498+56.8005+174.296+56.5565+174.323+56.2815C174.349+56.0075+174.594+55.7975+174.868+55.8315C177.278+56.0615+180.335+56.2485+183.708+56.3735C183.984+56.3835+184.199+56.6155+184.189+56.8915C184.179+57.1615+183.957+57.3725+183.69+57.3725ZM194.18+57.5585C192.652+57.5585+191.142+57.5475+189.665+57.5255C189.389+57.5215+189.168+57.2945+189.172+57.0185C189.176+56.7425+189.366+56.5295+189.679+56.5255C191.152+56.5475+192.657+56.5585+194.18+56.5585C201.059+56.5585+207.762+56.3225+212.568+55.9105C212.834+55.8835+213.086+56.0905+213.109+56.3665C213.133+56.6415+212.929+56.8835+212.653+56.9075C207.82+57.3215+201.087+57.5585+194.18+57.5585ZM193.694+40.5585L193.694+40.5585C189.046+40.5445+184.66+40.3345+181.345+39.9665C181.071+39.9355+180.873+39.6885+180.903+39.4145C180.934+39.1405+181.183+38.9445+181.455+38.9725C184.736+39.3375+189.083+39.5455+193.696+39.5585C193.972+39.5595+194.196+39.7835+194.195+40.0595C194.193+40.3345+193.97+40.5585+193.694+40.5585ZM197.66+40.5215C197.389+40.5215+197.166+40.3045+197.16+40.0325C197.154+39.7565+197.373+39.5285+197.649+39.5215C198.692+39.4985+199.711+39.4665+200.696+39.4235C200.979+39.4185+201.205+39.6255+201.217+39.9015C201.229+40.1775+201.015+40.4105+200.739+40.4225C199.747+40.4655+198.722+40.4985+197.671+40.5215C197.668+40.5215+197.664+40.5215+197.66+40.5215ZM202.691+40.3215C202.428+40.3215+202.208+40.1165+202.192+39.8515C202.175+39.5755+202.386+39.3385+202.661+39.3225C204.211+39.2305+205.642+39.1125+206.914+38.9715C207.201+38.9415+207.436+39.1395+207.466+39.4135C207.496+39.6885+207.299+39.9355+207.024+39.9655C205.734+40.1085+204.286+40.2275+202.72+40.3205C202.711+40.3215+202.701+40.3215+202.691+40.3215Z" opacity="1" fill="#1f212b"/>
<path d="M204.68+48.0585C203.3+48.0585+202.18+49.1778+202.18+50.5585C202.18+51.9392+203.3+53.0585+204.68+53.0585C206.061+53.0585+207.18+51.9392+207.18+50.5585C207.18+49.1778+206.061+48.0585+204.68+48.0585Z" opacity="1" fill="#d13f3f"/>
<path d="M204.68+53.5585C203.026+53.5585+201.68+52.2125+201.68+50.5585C201.68+48.9045+203.026+47.5585+204.68+47.5585C206.334+47.5585+207.68+48.9045+207.68+50.5585C207.68+52.2125+206.334+53.5585+204.68+53.5585ZM204.68+48.5585C203.577+48.5585+202.68+49.4555+202.68+50.5585C202.68+51.6615+203.577+52.5585+204.68+52.5585C205.783+52.5585+206.68+51.6615+206.68+50.5585C206.68+49.4555+205.783+48.5585+204.68+48.5585Z" opacity="1" fill="#1f212b"/>
<path d="M196.18+45.0585C195.076+45.0585+194.18+45.954+194.18+47.0585C194.18+48.1631+195.076+49.0585+196.18+49.0585C197.285+49.0585+198.18+48.1631+198.18+47.0585C198.18+45.954+197.285+45.0585+196.18+45.0585Z" opacity="1" fill="#fef6aa"/>
<path d="M196.18+49.5585C194.802+49.5585+193.68+48.4365+193.68+47.0585C193.68+45.6805+194.802+44.5585+196.18+44.5585C197.558+44.5585+198.68+45.6805+198.68+47.0585C198.68+48.4365+197.558+49.5585+196.18+49.5585ZM196.18+45.5585C195.353+45.5585+194.68+46.2315+194.68+47.0585C194.68+47.8855+195.353+48.5585+196.18+48.5585C197.007+48.5585+197.68+47.8855+197.68+47.0585C197.68+46.2315+197.007+45.5585+196.18+45.5585Z" opacity="1" fill="#1f212b"/>
<path d="M198.68+31.0585C197.3+31.0585+196.18+32.1778+196.18+33.5585C196.18+34.9392+197.3+36.0585+198.68+36.0585C200.061+36.0585+201.18+34.9392+201.18+33.5585C201.18+32.1778+200.061+31.0585+198.68+31.0585Z" opacity="1" fill="#565fa1"/>
<path d="M198.68+36.5585C197.026+36.5585+195.68+35.2125+195.68+33.5585C195.68+31.9045+197.026+30.5585+198.68+30.5585C200.334+30.5585+201.68+31.9045+201.68+33.5585C201.68+35.2125+200.334+36.5585+198.68+36.5585ZM198.68+31.5585C197.577+31.5585+196.68+32.4555+196.68+33.5585C196.68+34.6615+197.577+35.5585+198.68+35.5585C199.783+35.5585+200.68+34.6615+200.68+33.5585C200.68+32.4555+199.783+31.5585+198.68+31.5585Z" opacity="1" fill="#1f212b"/>
<path d="M191.18+28.0585C190.076+28.0585+189.18+28.954+189.18+30.0585C189.18+31.1631+190.076+32.0585+191.18+32.0585C192.285+32.0585+193.18+31.1631+193.18+30.0585C193.18+28.954+192.285+28.0585+191.18+28.0585Z" opacity="1" fill="#d13f3f"/>
<path d="M191.18+32.5585C189.802+32.5585+188.68+31.4365+188.68+30.0585C188.68+28.6805+189.802+27.5585+191.18+27.5585C192.558+27.5585+193.68+28.6805+193.68+30.0585C193.68+31.4365+192.558+32.5585+191.18+32.5585ZM191.18+28.5585C190.353+28.5585+189.68+29.2315+189.68+30.0585C189.68+30.8855+190.353+31.5585+191.18+31.5585C192.007+31.5585+192.68+30.8855+192.68+30.0585C192.68+29.2315+192.007+28.5585+191.18+28.5585Z" opacity="1" fill="#1f212b"/>
<path d="M184.68+47.0585C183.3+47.0585+182.18+48.1778+182.18+49.5585C182.18+50.9392+183.3+52.0585+184.68+52.0585C186.061+52.0585+187.18+50.9392+187.18+49.5585C187.18+48.1778+186.061+47.0585+184.68+47.0585Z" opacity="1" fill="#565fa1"/>
<path d="M184.68+52.5585C183.026+52.5585+181.68+51.2125+181.68+49.5585C181.68+47.9045+183.026+46.5585+184.68+46.5585C186.334+46.5585+187.68+47.9045+187.68+49.5585C187.68+51.2125+186.334+52.5585+184.68+52.5585ZM184.68+47.5585C183.577+47.5585+182.68+48.4555+182.68+49.5585C182.68+50.6615+183.577+51.5585+184.68+51.5585C185.783+51.5585+186.68+50.6615+186.68+49.5585C186.68+48.4555+185.783+47.5585+184.68+47.5585Z" opacity="1" fill="#1f212b"/>
<g opacity="1">
<path d="M188.68+64.0585C187.3+64.0585+186.18+65.1778+186.18+66.5585C186.18+67.9392+187.3+69.0585+188.68+69.0585C190.061+69.0585+191.18+67.9392+191.18+66.5585C191.18+65.1778+190.061+64.0585+188.68+64.0585Z" opacity="1" fill="#fef6aa"/>
<path d="M188.68+69.5585C187.026+69.5585+185.68+68.2125+185.68+66.5585C185.68+64.9045+187.026+63.5585+188.68+63.5585C190.334+63.5585+191.68+64.9045+191.68+66.5585C191.68+68.2125+190.334+69.5585+188.68+69.5585ZM188.68+64.5585C187.577+64.5585+186.68+65.4555+186.68+66.5585C186.68+67.6615+187.577+68.5585+188.68+68.5585C189.783+68.5585+190.68+67.6615+190.68+66.5585C190.68+65.4555+189.783+64.5585+188.68+64.5585Z" opacity="1" fill="#1f212b"/>
</g>
<path d="M179.18+60.0585C178.076+60.0585+177.18+60.954+177.18+62.0585C177.18+63.1631+178.076+64.0585+179.18+64.0585C180.285+64.0585+181.18+63.1631+181.18+62.0585C181.18+60.954+180.285+60.0585+179.18+60.0585Z" opacity="1" fill="#d13f3f"/>
<path d="M179.18+64.5585C177.802+64.5585+176.68+63.4365+176.68+62.0585C176.68+60.6805+177.802+59.5585+179.18+59.5585C180.558+59.5585+181.68+60.6805+181.68+62.0585C181.68+63.4365+180.558+64.5585+179.18+64.5585ZM179.18+60.5585C178.353+60.5585+177.68+61.2315+177.68+62.0585C177.68+62.8855+178.353+63.5585+179.18+63.5585C180.007+63.5585+180.68+62.8855+180.68+62.0585C180.68+61.2315+180.007+60.5585+179.18+60.5585Z" opacity="1" fill="#1f212b"/>
<g opacity="1">
<path d="M210.68+65.0585C209.3+65.0585+208.18+66.1778+208.18+67.5585C208.18+68.9392+209.3+70.0585+210.68+70.0585C212.061+70.0585+213.18+68.9392+213.18+67.5585C213.18+66.1778+212.061+65.0585+210.68+65.0585Z" opacity="1" fill="#565fa1"/>
<path d="M210.68+70.5585C209.026+70.5585+207.68+69.2125+207.68+67.5585C207.68+65.9045+209.026+64.5585+210.68+64.5585C212.334+64.5585+213.68+65.9045+213.68+67.5585C213.68+69.2125+212.334+70.5585+210.68+70.5585ZM210.68+65.5585C209.577+65.5585+208.68+66.4555+208.68+67.5585C208.68+68.6615+209.577+69.5585+210.68+69.5585C211.783+69.5585+212.68+68.6615+212.68+67.5585C212.68+66.4555+211.783+65.5585+210.68+65.5585Z" opacity="1" fill="#1f212b"/>
</g>
<g opacity="1">
<path d="M201.18+61.0585C200.076+61.0585+199.18+61.954+199.18+63.0585C199.18+64.1631+200.076+65.0585+201.18+65.0585C202.285+65.0585+203.18+64.1631+203.18+63.0585C203.18+61.954+202.285+61.0585+201.18+61.0585Z" opacity="1" fill="#f69272"/>
<path d="M201.18+65.5585C199.802+65.5585+198.68+64.4365+198.68+63.0585C198.68+61.6805+199.802+60.5585+201.18+60.5585C202.558+60.5585+203.68+61.6805+203.68+63.0585C203.68+64.4365+202.558+65.5585+201.18+65.5585ZM201.18+61.5585C200.353+61.5585+199.68+62.2315+199.68+63.0585C199.68+63.8855+200.353+64.5585+201.18+64.5585C202.007+64.5585+202.68+63.8855+202.68+63.0585C202.68+62.2315+202.007+61.5585+201.18+61.5585Z" opacity="1" fill="#1f212b"/>
</g>
<g opacity="1">
<path d="M203.53+8.40654L199.229+12.5715L200.238+18.4695C200.269+18.6625+200.197+18.8445+200.034+18.9665C199.952+19.0275+199.84+19.0575+199.738+19.0575C199.656+19.0575+199.575+19.0375+199.504+18.9965L194.184+16.2205L188.864+18.9965C188.691+19.0875+188.477+19.0775+188.324+18.9665C188.161+18.8445+188.09+18.6625+188.12+18.4695L189.139+12.5715L184.828+8.40654C184.695+8.26454+184.645+8.07254+184.706+7.87954C184.767+7.69754+184.92+7.56554+185.114+7.53554L191.066+6.68454L193.726+1.32454C193.808+1.15254+193.991+1.06154+194.174+1.06154C194.368+1.06154+194.551+1.15254+194.633+1.32454L197.293+6.68454L203.245+7.53554C203.439+7.56554+203.602+7.69754+203.663+7.87954C203.714+8.06154+203.673+8.26454+203.53+8.40654Z" opacity="1" fill="#fef6aa"/>
<path d="M188.615+19.5575C188.407+19.5575+188.2+19.4945+188.029+19.3705C187.714+19.1355+187.565+18.7705+187.626+18.3905L188.601+12.7475L184.48+8.76654C184.202+8.47054+184.114+8.08854+184.228+7.72854C184.351+7.36054+184.66+7.10054+185.035+7.04054L190.733+6.22654L193.276+1.10154C193.43+0.776538+193.783+0.560538+194.172+0.560538C194.573+0.560538+194.922+0.770538+195.083+1.10954L197.622+6.22654L203.314+7.03954C203.702+7.10054+204.014+7.36054+204.135+7.72054C204.245+8.10854+204.145+8.49854+203.882+8.76054C203.88+8.76254+203.879+8.76354+203.877+8.76554L199.765+12.7465L200.73+18.3835C200.791+18.7705+200.642+19.1345+200.332+19.3655C200.04+19.5815+199.586+19.6175+199.256+19.4295L194.183+16.7825L189.094+19.4385C188.945+19.5175+188.779+19.5575+188.615+19.5575ZM194.184+1.54554L191.512+6.90654C191.439+7.05354+191.298+7.15654+191.135+7.17954L185.183+8.03054L189.485+12.2125C189.604+12.3275+189.659+12.4935+189.631+12.6565L188.612+18.5535L193.952+15.7755C194.098+15.7005+194.269+15.7005+194.415+15.7755L199.735+18.5515L198.735+12.6555C198.707+12.4925+198.761+12.3265+198.88+12.2115L203.177+8.05154C203.187+8.04054+203.181+8.01654+203.18+8.01454L197.221+7.17954C197.058+7.15654+196.917+7.05454+196.844+6.90654L194.184+1.54554Z" opacity="1" fill="#1f212b"/>
</g>
</g>
</g>
</svg>
