<?xml version="1.0" encoding="UTF-8" standalone="no"?> <!-- Created with Vectornator for iOS (http://vectornator.io/) --><!DOCTYPE svg PUBLIC "-//W3C//DTD SVG 1.1//EN" "http://www.w3.org/Graphics/SVG/1.1/DTD/svg11.dtd">
<svg height="100%" style="fill-rule:nonzero;clip-rule:evenodd;stroke-linecap:round;stroke-linejoin:round;" xmlns:xlink="http://www.w3.org/1999/xlink" xmlns="http://www.w3.org/2000/svg" xml:space="preserve" width="100%" xmlns:vectornator="http://vectornator.io" version="1.1" viewBox="0 0 500 210">
<metadata>
<vectornator:setting key="DimensionsVisible" value="0"/>
<vectornator:setting key="PencilOnly" value="0"/>
<vectornator:setting key="SnapToPoints" value="0"/>
<vectornator:setting key="OutlineMode" value="0"/>
<vectornator:setting key="CMYKEnabledKey" value="0"/>
<vectornator:setting key="RulersVisible" value="1"/>
<vectornator:setting key="SnapToEdges" value="0"/>
<vectornator:setting key="GuidesVisible" value="0"/>
<vectornator:setting key="DisplayWhiteBackground" value="0"/>
<vectornator:setting key="doHistoryDisabled" value="0"/>
<vectornator:setting key="SnapToGuides" value="1"/>
<vectornator:setting key="TimeLapseWatermarkDisabled" value="0"/>
<vectornator:setting key="Units" value="Points"/>
<vectornator:setting key="DynamicGuides" value="1"/>
<vectornator:setting key="IsolateActiveLayer" value="0"/>
<vectornator:setting key="SnapToGrid" value="0"/>
</metadata>
<defs/>
<g id="freepik--Leaves--inject-42" vectornator:layerName="freepik--Leaves--inject-42">
<g opacity="1">
<path d="M190.55+22.6386C180.75+11.0786+168.47+7.12856+159.46+11.4386C156.797+12.7134+153.61+12.0548+151.67+9.82856C140.77-1.98144+123.1-3.38144+115.77+7.75856C114.94+9.01975+114.237+10.3595+113.67+11.7586C112.77+14.0105+111.273+15.9743+109.34+17.4386C108.027+18.4135+106.899+19.6158+106.01+20.9886C103.631+24.9323+102.528+29.5142+102.85+34.1086C102.962+35.5086+102.252+36.8466+101.03+37.5386C98.9892+38.6074+97.2649+40.1937+96.03+42.1386C90.09+51.1386+92.71+67.2386+101.88+78.0486C110.05+87.6786+120.66+89.8886+127.07+83.8686C127.612+83.3479+128.468+83.3479+129.01+83.8686C133.63+88.0186+139.01+88.0486+141.78+83.5486L141.78+83.5486C141.996+83.1506+142.388+82.8793+142.836+82.818C143.285+82.7568+143.736+82.913+144.05+83.2386C148.81+88.0086+154.56+88.2386+157.49+83.5486C158.018+82.6754+158.422+81.733+158.69+80.7486C158.773+80.3255+159.036+79.9595+159.41+79.7462C159.785+79.533+160.234+79.4937+160.64+79.6386C163.75+80.8886+166.8+80.3486+168.88+77.8886C169.307+77.3602+170.058+77.2278+170.64+77.5786C181.31+83.9586+192.56+82.7286+198.82+73.2186C207.19+60.4886+203.55+37.8586+190.55+22.6386Z" opacity="1" fill="#1082af"/>
<path d="M190.55+22.6386C180.75+11.0786+168.47+7.12856+159.46+11.4386C156.797+12.7134+153.61+12.0548+151.67+9.82856C140.77-1.98144+123.1-3.38144+115.77+7.75856C114.94+9.01975+114.237+10.3595+113.67+11.7586C112.77+14.0105+111.273+15.9743+109.34+17.4386C108.027+18.4135+106.899+19.6158+106.01+20.9886C103.631+24.9323+102.528+29.5142+102.85+34.1086C102.962+35.5086+102.252+36.8466+101.03+37.5386C98.9892+38.6074+97.2649+40.1937+96.03+42.1386C90.09+51.1386+92.71+67.2386+101.88+78.0486C110.05+87.6786+120.66+89.8886+127.07+83.8686C127.612+83.3479+128.468+83.3479+129.01+83.8686C133.63+88.0186+139.01+88.0486+141.78+83.5486L141.78+83.5486C141.996+83.1506+142.388+82.8793+142.836+82.818C143.285+82.7568+143.736+82.913+144.05+83.2386C148.81+88.0086+154.56+88.2386+157.49+83.5486C158.018+82.6754+158.422+81.733+158.69+80.7486C158.773+80.3255+159.036+79.9595+159.41+79.7462C159.785+79.533+160.234+79.4937+160.64+79.6386C163.75+80.8886+166.8+80.3486+168.88+77.8886C169.307+77.3602+170.058+77.2278+170.64+77.5786C181.31+83.9586+192.56+82.7286+198.82+73.2186C207.19+60.4886+203.55+37.8586+190.55+22.6386Z" opacity="0.6" fill="#ffffff"/>
<path d="M125.32+89.1386L134.61+98.2286C133.87+111.059+133.26+140.609+133.26+140.609L129.96+161.269L159.07+161.549C159.07+161.549+157.75+144.099+157.75+143.159C157.75+142.219+152.12+108.789+152.12+108.789L150.12+90.0686L165.12+85.2386L167.86+76.8986L178.86+70.3186L184.25+61.5886L182.17+61.0586L176.17+69.1186L169.22+70.7086L172.22+63.2886L168.91+63.2886L160.64+80.4886L149.98+82.7886L151.37+58.6386C142.85+62.8386+140.12+55.8386+140.12+55.8386C140.12+55.8386+136.6+88.3486+135.36+92.0486L129.87+89.1386L123.87+79.2186L121.35+79.2186L125.32+89.1386Z" opacity="1" fill="#1082af"/>
<path d="M81.25+129.479L82.72+129.479L82.72+129.479L82.72+148.379L82.72+148.379L81.25+148.379L81.25+148.379L81.25+129.479L81.25+129.479Z" opacity="1" fill="#1082af"/>
<path d="M81.25+129.479L82.72+129.479L82.72+129.479L82.72+148.379L82.72+148.379L81.25+148.379L81.25+148.379L81.25+129.479L81.25+129.479Z" opacity="0.2" fill="#000000"/>
<path d="M111.72+129.479L113.19+129.479L113.19+129.479L113.19+148.379L113.19+148.379L111.72+148.379L111.72+148.379L111.72+129.479L111.72+129.479Z" opacity="1" fill="#1082af"/>
<path d="M111.72+129.479L113.19+129.479L113.19+129.479L113.19+148.379L113.19+148.379L111.72+148.379L111.72+148.379L111.72+129.479L111.72+129.479Z" opacity="0.2" fill="#000000"/>
<path d="M79.64+146.539L114.86+146.539L114.86+146.539L114.86+148.839L114.86+148.839L79.64+148.839L79.64+148.839L79.64+146.539L79.64+146.539Z" opacity="1" fill="#1082af"/>
<path d="M79.64+146.539L114.86+146.539L114.86+146.539L114.86+148.839L114.86+148.839L79.64+148.839L79.64+148.839L79.64+146.539L79.64+146.539Z" opacity="0.2" fill="#ffffff"/>
<path d="M80.51+148.769L81.98+148.769L81.98+148.769L81.98+161.559L81.98+161.559L80.51+161.559L80.51+161.559L80.51+148.769L80.51+148.769Z" opacity="1" fill="#1082af"/>
<path d="M80.51+148.769L81.98+148.769L81.98+148.769L81.98+161.559L81.98+161.559L80.51+161.559L80.51+161.559L80.51+148.769L80.51+148.769Z" opacity="0.2" fill="#000000"/>
<path d="M112.66+148.769L114.13+148.769L114.13+148.769L114.13+161.559L114.13+161.559L112.66+161.559L112.66+161.559L112.66+148.769L112.66+148.769Z" opacity="1" fill="#1082af"/>
<path d="M112.66+148.769L114.13+148.769L114.13+148.769L114.13+161.559L114.13+161.559L112.66+161.559L112.66+161.559L112.66+148.769L112.66+148.769Z" opacity="0.2" fill="#000000"/>
<path d="M79.64+130.329L114.86+130.329L114.86+130.329L114.86+141.449L114.86+141.449L79.64+141.449L79.64+141.449L79.64+130.329L79.64+130.329Z" opacity="1" fill="#1082af"/>
<path d="M79.64+130.329L114.86+130.329L114.86+130.329L114.86+141.449L114.86+141.449L79.64+141.449L79.64+141.449L79.64+130.329L79.64+130.329Z" opacity="0.2" fill="#ffffff"/>
<path d="M79.69+148.379L114.79+148.379L114.79+148.379L114.79+151.959L114.79+151.959L79.69+151.959L79.69+151.959L79.69+148.379L79.69+148.379Z" opacity="1" fill="#1082af"/>
<path d="M79.69+148.379L114.79+148.379L114.79+148.379L114.79+151.959L114.79+151.959L79.69+151.959L79.69+151.959L79.69+148.379L79.69+148.379Z" opacity="0.1" fill="#000000"/>
<path d="M78.22+143.289L79.69+143.289L79.69+143.289L79.69+161.539L79.69+161.539L78.22+161.539L78.22+161.539L78.22+143.289L78.22+143.289Z" opacity="1" fill="#1082af"/>
<path d="M77.7+141.459L80.26+141.459L80.26+141.459L80.26+144.019L80.26+144.019L77.7+144.019L77.7+144.019L77.7+141.459L77.7+141.459Z" opacity="1" fill="#1082af"/>
<path d="M77.7+141.459L80.26+141.459L80.26+141.459L80.26+144.019L80.26+144.019L77.7+144.019L77.7+144.019L77.7+141.459L77.7+141.459Z" opacity="0.2" fill="#ffffff"/>
<path d="M80.25+141.459L82.25+141.459L82.25+141.459L82.25+144.019L82.25+144.019L80.25+144.019L80.25+144.019L80.25+141.459L80.25+141.459Z" opacity="1" fill="#1082af"/>
<path d="M116.27+161.539L114.8+161.539L114.8+161.539L114.8+143.289L114.8+143.289L116.27+143.289L116.27+143.289L116.27+161.539L116.27+161.539Z" opacity="1" fill="#1082af"/>
<path d="M116.79+144.009L114.24+144.009L114.24+144.009L114.24+141.449L114.24+141.449L116.79+141.449L116.79+141.449L116.79+144.009L116.79+144.009Z" opacity="1" fill="#1082af"/>
<path d="M116.79+144.009L114.24+144.009L114.24+144.009L114.24+141.449L114.24+141.449L116.79+141.449L116.79+141.449L116.79+144.009L116.79+144.009Z" opacity="0.2" fill="#ffffff"/>
<path d="M112.23+141.459L114.23+141.459L114.23+141.459L114.23+144.019L114.23+144.019L112.23+144.019L112.23+144.019L112.23+141.459L112.23+141.459Z" opacity="1" fill="#1082af"/>
<path d="M80.25+141.459L82.25+141.459L82.25+141.459L82.25+144.019L82.25+144.019L80.25+144.019L80.25+144.019L80.25+141.459L80.25+141.459Z" opacity="0.1" fill="#000000"/>
<path d="M112.23+141.459L114.23+141.459L114.23+141.459L114.23+144.019L114.23+144.019L112.23+144.019L112.23+144.019L112.23+141.459L112.23+141.459Z" opacity="0.1" fill="#000000"/>
<path d="M39.92+160.629L460.08+160.629L460.08+160.629L460.08+171.189L460.08+171.189L39.92+171.189L39.92+171.189L39.92+160.629L39.92+160.629Z" opacity="1" fill="#1082af"/>
<path d="M39.92+160.629L460.08+160.629L460.08+160.629L460.08+171.189L460.08+171.189L39.92+171.189L39.92+171.189L39.92+160.629L39.92+160.629Z" opacity="0.49" fill="#ffffff"/>
<path d="M61.58+160.629L62.58+160.629L62.58+160.629L62.58+171.939L62.58+171.939L61.58+171.939L61.58+171.939L61.58+160.629L61.58+160.629Z" opacity="1" fill="#ffffff"/>
<path d="M155.56+160.629L156.56+160.629L156.56+160.629L156.56+171.939L156.56+171.939L155.56+171.939L155.56+171.939L155.56+160.629L155.56+160.629Z" opacity="1" fill="#ffffff"/>
<path d="M249.54+160.629L250.54+160.629L250.54+160.629L250.54+171.939L250.54+171.939L249.54+171.939L249.54+171.939L249.54+160.629L249.54+160.629Z" opacity="1" fill="#ffffff"/>
<path d="M343.52+160.629L344.52+160.629L344.52+160.629L344.52+171.939L344.52+171.939L343.52+171.939L343.52+171.939L343.52+160.629L343.52+160.629Z" opacity="1" fill="#ffffff"/>
<path d="M437.5+160.629L438.5+160.629L438.5+160.629L438.5+171.939L438.5+171.939L437.5+171.939L437.5+171.939L437.5+160.629L437.5+160.629Z" opacity="1" fill="#ffffff"/>
<path d="M39.92+171.169L460.08+171.169L460.08+171.169L460.08+176.069L460.08+176.069L39.92+176.069L39.92+176.069L39.92+171.169L39.92+171.169Z" opacity="1" fill="#1082af"/>
<path d="M39.92+171.169L460.08+171.169L460.08+171.169L460.08+176.069L460.08+176.069L39.92+176.069L39.92+176.069L39.92+171.169L39.92+171.169Z" opacity="0.9" fill="#ffffff"/>
<path d="M355.65+207.079L355.78+207.079C357.122+206.393+358.613+206.049+360.12+206.079C361.89+206.079+363.59+206.289+365.36+206.269C366.415+206.269+367.465+206.124+368.48+205.839C368.727+205.695+368.961+205.531+369.18+205.349C369.58+205.019+369.7+204.629+368.96+204.289C364.393+202.188+358.989+203.32+355.65+207.079Z" opacity="1" fill="#263238"/>
<path d="M368.13+204.549L370.86+204.029C371.58+204.029+371.58+204.439+371.07+204.549C370.14+204.459+368.29+204.849+368.13+204.549Z" opacity="1" fill="#263238"/>
<g opacity="0.8">
<path d="M355.65+207.079L355.78+207.079C357.122+206.393+358.613+206.049+360.12+206.079C361.89+206.079+363.59+206.289+365.36+206.269C366.415+206.269+367.465+206.124+368.48+205.839C368.727+205.695+368.961+205.531+369.18+205.349C369.58+205.019+369.7+204.629+368.96+204.289C364.393+202.188+358.989+203.32+355.65+207.079Z" opacity="0.8" fill="#ffffff"/>
<path d="M368.13+204.549L370.86+204.029C371.58+204.029+371.58+204.439+371.07+204.549C370.14+204.459+368.29+204.849+368.13+204.549Z" opacity="0.8" fill="#ffffff"/>
</g>
<path d="M355.6+206.759L355.74+206.829C356.902+205.766+358.464+205.253+360.03+205.419C361.82+205.519+363.55+206.089+365.33+206.209C366.394+206.295+367.464+206.127+368.45+205.719C368.694+205.473+368.918+205.209+369.12+204.929C369.346+204.645+369.441+204.279+369.379+203.922C369.318+203.565+369.107+203.25+368.8+203.059C361.4+196.969+356.45+204.639+355.6+206.759Z" opacity="1" fill="#1082af"/>
<path d="M367.99+203.399L370.7+202.729C371.42+202.729+371.46+203.509+370.95+203.649C370.01+203.419+368.17+203.919+367.99+203.399Z" opacity="1" fill="#1082af"/>
<path d="M355.6+206.759L355.74+206.829C356.902+205.766+358.464+205.253+360.03+205.419C361.82+205.519+363.55+206.089+365.33+206.209C366.394+206.295+367.464+206.127+368.45+205.719C368.694+205.473+368.918+205.209+369.12+204.929C369.346+204.645+369.441+204.279+369.379+203.922C369.318+203.565+369.107+203.25+368.8+203.059C361.4+196.969+356.45+204.639+355.6+206.759Z" opacity="0.2" fill="#ffffff"/>
<path d="M203.15+199.509L202.87+199.509C200.87+201.179+197.55+202.259+194.48+202.739C190.95+203.299+187.48+203.279+183.97+203.809C181.86+204.1+179.8+204.682+177.85+205.539C177.397+205.894+176.972+206.286+176.58+206.709C175.87+207.479+175.75+208.299+177.33+208.759C187.034+211.685+197.512+207.931+203.15+199.509Z" opacity="1" fill="#263238"/>
<path d="M178.91+208.029L173.6+209.829C172.17+210.039+172.05+209.199+173.04+208.829C174.92+208.759+178.55+207.469+178.91+208.029Z" opacity="1" fill="#263238"/>
<g opacity="0.8">
<path d="M203.15+199.509L202.87+199.509C200.87+201.179+197.55+202.259+194.48+202.739C190.95+203.299+187.48+203.279+183.97+203.809C181.86+204.1+179.8+204.682+177.85+205.539C177.397+205.894+176.972+206.286+176.58+206.709C175.87+207.479+175.75+208.299+177.33+208.759C187.034+211.685+197.512+207.931+203.15+199.509Z" opacity="0.8" fill="#ffffff"/>
<path d="M178.91+208.029L173.6+209.829C172.17+210.039+172.05+209.199+173.04+208.829C174.92+208.759+178.55+207.469+178.91+208.029Z" opacity="0.8" fill="#ffffff"/>
</g>
<path d="M201.19+195.449C201.19+195.669+201.07+195.909+200.98+196.179C200.89+196.449+200.89+196.459+200.84+196.599C200.74+196.899+200.62+197.209+200.49+197.549L200.26+198.079C200.17+198.299+200.08+198.509+199.97+198.729C199.86+198.949+199.76+199.179+199.64+199.409C199.52+199.639+199.41+199.869+199.28+200.109C199.15+200.349+199.04+200.549+198.91+200.769C198.78+200.989+198.61+201.289+198.44+201.549L197.97+202.279C197.8+202.529+197.63+202.769+197.45+203.009C197.27+203.249+197.09+203.489+196.9+203.729C196.71+203.969+196.51+204.219+196.3+204.449C196.09+204.679+195.9+204.899+195.69+205.119C195.48+205.339+195.25+205.569+195.02+205.779C194.807+205.616+194.571+205.484+194.32+205.389C193.156+204.792+191.729+205.236+191.11+206.389C190.876+207.045+191.001+207.777+191.44+208.319C191.003+208.543+190.552+208.74+190.09+208.909L189.7+209.039L189.26+209.179C189.048+209.25+188.83+209.307+188.61+209.349C188.452+209.391+188.292+209.425+188.13+209.449C187.893+209.506+187.652+209.55+187.41+209.579L186.59+209.659C186.303+209.659+186.003+209.659+185.69+209.659C184.548+209.653+183.41+209.516+182.3+209.249C181.681+209.1+181.07+208.92+180.47+208.709C179.348+208.306+178.258+207.818+177.21+207.249C176.76+207.009+176.31+206.749+175.84+206.459C175.171+206.164+174.661+205.596+174.441+204.899C174.221+204.202+174.312+203.444+174.69+202.819C175.003+202.198+175.375+201.609+175.8+201.059C177.654+199.967+179.742+199.336+181.89+199.219C185.49+198.949+189.11+199.619+192.7+199.309C195.82+199.039+199.13+197.809+200.9+195.309L201.19+195.449Z" opacity="1" fill="#1082af"/>
<path d="M177.36+205.599L172.13+207.699C170.67+207.809+170.4+206.349+171.37+205.919C173.32+206.119+176.84+204.569+177.36+205.599Z" opacity="1" fill="#1082af"/>
<path d="M201.19+195.449C201.19+195.669+201.07+195.909+200.98+196.179C200.89+196.449+200.89+196.459+200.84+196.599C200.74+196.899+200.62+197.209+200.49+197.549L200.26+198.079C200.17+198.299+200.08+198.509+199.97+198.729C199.86+198.949+199.76+199.179+199.64+199.409C199.52+199.639+199.41+199.869+199.28+200.109C199.15+200.349+199.04+200.549+198.91+200.769C198.78+200.989+198.61+201.289+198.44+201.549L197.97+202.279C197.8+202.529+197.63+202.769+197.45+203.009C197.27+203.249+197.09+203.489+196.9+203.729C196.71+203.969+196.51+204.219+196.3+204.449C196.09+204.679+195.9+204.899+195.69+205.119C195.48+205.339+195.25+205.569+195.02+205.779C194.807+205.616+194.571+205.484+194.32+205.389C193.156+204.792+191.729+205.236+191.11+206.389C190.876+207.045+191.001+207.777+191.44+208.319C191.003+208.543+190.552+208.74+190.09+208.909L189.7+209.039L189.26+209.179C189.048+209.25+188.83+209.307+188.61+209.349C188.452+209.391+188.292+209.425+188.13+209.449C187.893+209.506+187.652+209.55+187.41+209.579L186.59+209.659C186.303+209.659+186.003+209.659+185.69+209.659C184.548+209.653+183.41+209.516+182.3+209.249C181.68+209.103+181.069+208.923+180.47+208.709C179.344+208.314+178.254+207.826+177.21+207.249C176.76+207.009+176.31+206.749+175.84+206.459C175.171+206.164+174.661+205.596+174.441+204.899C174.221+204.202+174.312+203.444+174.69+202.819C175.003+202.198+175.375+201.609+175.8+201.059C177.654+199.967+179.742+199.336+181.89+199.219C185.49+198.949+189.11+199.619+192.7+199.309C195.82+199.039+199.13+197.809+200.9+195.309L201.19+195.449Z" opacity="0.2" fill="#ffffff"/>
<path d="M301.55+199.729L301.71+199.659C303.526+200.335+305.482+200.544+307.4+200.269C309.66+200.039+311.78+199.459+314.03+199.199C315.376+199.033+316.739+199.053+318.08+199.259C318.426+199.403+318.76+199.574+319.08+199.769C319.64+200.129+319.85+200.619+318.96+201.149C313.479+204.568+306.404+203.991+301.55+199.729Z" opacity="1" fill="#263238"/>
<path d="M317.82+200.989L321.38+201.219C322.29+201.119+322.23+200.579+321.56+200.519C320.39+200.779+317.98+200.569+317.82+200.989Z" opacity="1" fill="#263238"/>
<g opacity="0.8">
<path d="M301.55+199.729L301.71+199.659C303.526+200.335+305.482+200.544+307.4+200.269C309.66+200.039+311.78+199.459+314.03+199.199C315.376+199.033+316.739+199.053+318.08+199.259C318.426+199.403+318.76+199.574+319.08+199.769C319.64+200.129+319.85+200.619+318.96+201.149C313.479+204.568+306.404+203.991+301.55+199.729Z" opacity="0.8" fill="#ffffff"/>
<path d="M317.82+200.989L321.38+201.219C322.29+201.119+322.23+200.579+321.56+200.519C320.39+200.779+317.98+200.569+317.82+200.989Z" opacity="0.8" fill="#ffffff"/>
</g>
<path d="M302.55+195.739L302.72+195.649C304.215+197.009+306.219+197.667+308.23+197.459C310.52+197.339+312.75+196.599+315.04+196.459C316.405+196.344+317.777+196.56+319.04+197.089C319.351+197.397+319.636+197.732+319.89+198.089C320.18+198.452+320.302+198.922+320.223+199.381C320.145+199.839+319.875+200.242+319.48+200.489C310+208.299+303.66+198.449+302.55+195.739Z" opacity="1" fill="#1082af"/>
<path d="M318.46+200.049L321.94+200.919C322.87+200.859+322.94+199.919+322.26+199.729C321.05+200.019+318.7+199.359+318.46+200.049Z" opacity="1" fill="#1082af"/>
<path d="M302.55+195.739L302.72+195.649C304.215+197.009+306.219+197.667+308.23+197.459C310.52+197.339+312.75+196.599+315.04+196.459C316.405+196.344+317.777+196.56+319.04+197.089C319.351+197.397+319.636+197.732+319.89+198.089C320.18+198.452+320.302+198.922+320.223+199.381C320.145+199.839+319.875+200.242+319.48+200.489C310+208.299+303.66+198.449+302.55+195.739Z" opacity="0.2" fill="#ffffff"/>
<path d="M242.46+197.529L242.3+197.459C240.475+198.073+238.524+198.214+236.63+197.869C234.39+197.559+232.31+196.869+230.07+196.579C228.746+196.374+227.401+196.347+226.07+196.499C225.726+196.632+225.392+196.789+225.07+196.969C224.5+197.309+224.27+197.779+225.14+198.349C230.464+201.917+237.497+201.585+242.46+197.529Z" opacity="1" fill="#263238"/>
<path d="M226.23+198.219L222.68+198.329C221.78+198.189+221.86+197.659+222.53+197.629C223.68+197.919+226.09+197.809+226.23+198.219Z" opacity="1" fill="#263238"/>
<g opacity="0.8">
<path d="M242.46+197.529L242.3+197.459C240.475+198.073+238.524+198.214+236.63+197.869C234.39+197.559+232.31+196.869+230.07+196.579C228.746+196.374+227.401+196.347+226.07+196.499C225.726+196.632+225.392+196.789+225.07+196.969C224.5+197.309+224.27+197.779+225.14+198.349C230.464+201.917+237.497+201.585+242.46+197.529Z" opacity="0.8" fill="#ffffff"/>
<path d="M226.23+198.219L222.68+198.329C221.78+198.189+221.86+197.659+222.53+197.629C223.68+197.919+226.09+197.809+226.23+198.219Z" opacity="0.8" fill="#ffffff"/>
</g>
<path d="M242.02+194.719C241.972+194.671+241.919+194.631+241.86+194.599C240.179+195.696+238.11+196.027+236.17+195.509C233.94+195.039+231.87+193.959+229.65+193.509C228.335+193.193+226.965+193.193+225.65+193.509C225.294+193.767+224.959+194.055+224.65+194.369C224.305+194.676+224.107+195.116+224.107+195.579C224.107+196.041+224.305+196.481+224.65+196.789C232.75+205.919+240.55+197.209+242.02+194.719Z" opacity="1" fill="#1082af"/>
<path d="M225.74+196.459L222.19+196.769C221.29+196.569+221.39+195.629+222.06+195.559C223.2+196.029+225.61+195.739+225.74+196.459Z" opacity="1" fill="#1082af"/>
<path d="M242.02+194.719C241.972+194.671+241.919+194.631+241.86+194.599C240.179+195.696+238.11+196.027+236.17+195.509C233.94+195.039+231.87+193.959+229.65+193.509C228.335+193.193+226.965+193.193+225.65+193.509C225.294+193.767+224.959+194.055+224.65+194.369C224.305+194.676+224.107+195.116+224.107+195.579C224.107+196.041+224.305+196.481+224.65+196.789C232.75+205.919+240.55+197.209+242.02+194.719Z" opacity="0.2" fill="#ffffff"/>
<path d="M149.6+202.709L149.41+202.709C147.82+201.478+145.946+200.666+143.96+200.349C141.65+199.879+139.37+199.809+137.05+199.349C135.663+199.101+134.317+198.664+133.05+198.049C132.76+197.799+132.49+197.528+132.24+197.239C131.8+196.709+131.74+196.169+132.79+195.909C139.279+194.226+146.106+196.987+149.6+202.709Z" opacity="1" fill="#263238"/>
<path d="M133.82+196.439L130.37+195.119C129.43+194.939+129.37+195.489+129.98+195.749C131.21+195.859+133.55+196.799+133.82+196.439Z" opacity="1" fill="#263238"/>
<g opacity="0.8">
<path d="M149.6+202.709L149.41+202.709C147.82+201.478+145.946+200.666+143.96+200.349C141.65+199.879+139.37+199.809+137.05+199.349C135.663+199.101+134.317+198.664+133.05+198.049C132.76+197.799+132.49+197.528+132.24+197.239C131.8+196.709+131.74+196.169+132.79+195.909C139.279+194.226+146.106+196.987+149.6+202.709Z" opacity="0.8" fill="#ffffff"/>
<path d="M133.82+196.439L130.37+195.119C129.43+194.939+129.37+195.489+129.98+195.749C131.21+195.859+133.55+196.799+133.82+196.439Z" opacity="0.8" fill="#ffffff"/>
</g>
<path d="M149.74+202.309L149.54+202.359C148.258+200.699+146.331+199.662+144.24+199.509C141.88+199.209+139.47+199.509+137.1+199.279C135.675+199.145+134.304+198.672+133.1+197.899C132.835+197.525+132.607+197.127+132.42+196.709C132.188+196.287+132.148+195.785+132.311+195.332C132.473+194.879+132.823+194.517+133.27+194.339C144.45+188.099+149.13+199.329+149.74+202.309Z" opacity="1" fill="#1082af"/>
<path d="M134.29+194.969L130.89+193.449C129.89+193.339+129.71+194.289+130.34+194.599C131.63+194.529+133.91+195.639+134.29+194.969Z" opacity="1" fill="#1082af"/>
<path d="M149.74+202.309L149.54+202.359C148.258+200.699+146.331+199.662+144.24+199.509C141.88+199.209+139.47+199.509+137.1+199.279C135.675+199.145+134.304+198.672+133.1+197.899C132.835+197.525+132.607+197.127+132.42+196.709C132.188+196.287+132.148+195.785+132.311+195.332C132.473+194.879+132.823+194.517+133.27+194.339C144.45+188.099+149.13+199.329+149.74+202.309Z" opacity="0.2" fill="#ffffff"/>
</g>
</g>
</svg>
