<?xml version="1.0" encoding="UTF-8" standalone="no"?> <!-- Created with Vectornator for iOS (http://vectornator.io/) --><!DOCTYPE svg PUBLIC "-//W3C//DTD SVG 1.1//EN" "http://www.w3.org/Graphics/SVG/1.1/DTD/svg11.dtd">
<svg height="100%" style="fill-rule:nonzero;clip-rule:evenodd;stroke-linecap:round;stroke-linejoin:round;" xmlns:xlink="http://www.w3.org/1999/xlink" xmlns="http://www.w3.org/2000/svg" xml:space="preserve" width="100%" xmlns:vectornator="http://vectornator.io" version="1.1" viewBox="0 0 500 300">
<metadata>
<vectornator:setting key="DimensionsVisible" value="0"/>
<vectornator:setting key="PencilOnly" value="0"/>
<vectornator:setting key="SnapToPoints" value="0"/>
<vectornator:setting key="OutlineMode" value="0"/>
<vectornator:setting key="CMYKEnabledKey" value="0"/>
<vectornator:setting key="RulersVisible" value="1"/>
<vectornator:setting key="SnapToEdges" value="0"/>
<vectornator:setting key="GuidesVisible" value="0"/>
<vectornator:setting key="DisplayWhiteBackground" value="0"/>
<vectornator:setting key="doHistoryDisabled" value="0"/>
<vectornator:setting key="SnapToGuides" value="1"/>
<vectornator:setting key="TimeLapseWatermarkDisabled" value="0"/>
<vectornator:setting key="Units" value="Points"/>
<vectornator:setting key="DynamicGuides" value="1"/>
<vectornator:setting key="IsolateActiveLayer" value="0"/>
<vectornator:setting key="SnapToGrid" value="0"/>
</metadata>
<defs/>
<g id="freepik--Leaves--inject-42" vectornator:layerName="freepik--Leaves--inject-42">
<g opacity="1">
<path d="M189+99.5003C179.2+87.9403+166.92+83.9903+157.91+88.3003C155.247+89.5752+152.06+88.9166+150.12+86.6903C139.22+74.8803+121.55+73.4803+114.22+84.6203C113.39+85.8815+112.687+87.2213+112.12+88.6203C111.22+90.8723+109.723+92.8361+107.79+94.3003C106.477+95.2752+105.349+96.4776+104.46+97.8503C102.081+101.794+100.978+106.376+101.3+110.97C101.412+112.37+100.702+113.708+99.48+114.4C97.4392+115.469+95.7149+117.055+94.48+119C88.54+128+91.16+144.1+100.33+154.91C108.5+164.54+119.11+166.75+125.52+160.73C126.062+160.21+126.918+160.21+127.46+160.73C132.08+164.88+137.46+164.91+140.23+160.41L140.23+160.41C140.446+160.012+140.838+159.741+141.286+159.68C141.735+159.619+142.186+159.775+142.5+160.1C147.26+164.87+153.01+165.1+155.94+160.41C156.468+159.537+156.872+158.595+157.14+157.61C157.223+157.187+157.486+156.821+157.86+156.608C158.235+156.395+158.684+156.355+159.09+156.5C162.2+157.75+165.25+157.21+167.33+154.75C167.757+154.222+168.508+154.09+169.09+154.44C179.76+160.82+191.01+159.59+197.27+150.08C205.64+137.35+202+114.72+189+99.5003Z" opacity="1" fill="#1082af"/>
<path d="M189+99.5003C179.2+87.9403+166.92+83.9903+157.91+88.3003C155.247+89.5752+152.06+88.9166+150.12+86.6903C139.22+74.8803+121.55+73.4803+114.22+84.6203C113.39+85.8815+112.687+87.2213+112.12+88.6203C111.22+90.8723+109.723+92.8361+107.79+94.3003C106.477+95.2752+105.349+96.4776+104.46+97.8503C102.081+101.794+100.978+106.376+101.3+110.97C101.412+112.37+100.702+113.708+99.48+114.4C97.4392+115.469+95.7149+117.055+94.48+119C88.54+128+91.16+144.1+100.33+154.91C108.5+164.54+119.11+166.75+125.52+160.73C126.062+160.21+126.918+160.21+127.46+160.73C132.08+164.88+137.46+164.91+140.23+160.41L140.23+160.41C140.446+160.012+140.838+159.741+141.286+159.68C141.735+159.619+142.186+159.775+142.5+160.1C147.26+164.87+153.01+165.1+155.94+160.41C156.468+159.537+156.872+158.595+157.14+157.61C157.223+157.187+157.486+156.821+157.86+156.608C158.235+156.395+158.684+156.355+159.09+156.5C162.2+157.75+165.25+157.21+167.33+154.75C167.757+154.222+168.508+154.09+169.09+154.44C179.76+160.82+191.01+159.59+197.27+150.08C205.64+137.35+202+114.72+189+99.5003Z" opacity="0.6" fill="#ffffff"/>
<path d="M123.77+166L133.06+175.09C132.32+187.92+131.71+217.47+131.71+217.47L128.41+238.13L157.52+238.41C157.52+238.41+156.2+220.96+156.2+220.02C156.2+219.08+150.57+185.65+150.57+185.65L148.57+166.93L163.57+162.1L166.31+153.76L177.31+147.18L182.7+138.45L180.62+137.92L174.62+145.98L167.67+147.57L170.67+140.15L167.36+140.15L159.09+157.35L148.43+159.65L149.82+135.5C141.3+139.7+138.57+132.7+138.57+132.7C138.57+132.7+135.05+165.21+133.81+168.91L128.32+166L122.32+156.08L119.8+156.08L123.77+166Z" opacity="1" fill="#1082af"/>
<path d="M79.7+206.34L81.17+206.34L81.17+206.34L81.17+225.24L81.17+225.24L79.7+225.24L79.7+225.24L79.7+206.34L79.7+206.34Z" opacity="1" fill="#1082af"/>
<path d="M79.7+206.34L81.17+206.34L81.17+206.34L81.17+225.24L81.17+225.24L79.7+225.24L79.7+225.24L79.7+206.34L79.7+206.34Z" opacity="0.2" fill="#000000"/>
<path d="M110.17+206.34L111.64+206.34L111.64+206.34L111.64+225.24L111.64+225.24L110.17+225.24L110.17+225.24L110.17+206.34L110.17+206.34Z" opacity="1" fill="#1082af"/>
<path d="M110.17+206.34L111.64+206.34L111.64+206.34L111.64+225.24L111.64+225.24L110.17+225.24L110.17+225.24L110.17+206.34L110.17+206.34Z" opacity="0.2" fill="#000000"/>
<path d="M78.09+223.4L113.31+223.4L113.31+223.4L113.31+225.7L113.31+225.7L78.09+225.7L78.09+225.7L78.09+223.4L78.09+223.4Z" opacity="1" fill="#1082af"/>
<path d="M78.09+223.4L113.31+223.4L113.31+223.4L113.31+225.7L113.31+225.7L78.09+225.7L78.09+225.7L78.09+223.4L78.09+223.4Z" opacity="0.2" fill="#ffffff"/>
<path d="M78.96+225.63L80.43+225.63L80.43+225.63L80.43+238.42L80.43+238.42L78.96+238.42L78.96+238.42L78.96+225.63L78.96+225.63Z" opacity="1" fill="#1082af"/>
<path d="M78.96+225.63L80.43+225.63L80.43+225.63L80.43+238.42L80.43+238.42L78.96+238.42L78.96+238.42L78.96+225.63L78.96+225.63Z" opacity="0.2" fill="#000000"/>
<path d="M111.11+225.63L112.58+225.63L112.58+225.63L112.58+238.42L112.58+238.42L111.11+238.42L111.11+238.42L111.11+225.63L111.11+225.63Z" opacity="1" fill="#1082af"/>
<path d="M111.11+225.63L112.58+225.63L112.58+225.63L112.58+238.42L112.58+238.42L111.11+238.42L111.11+238.42L111.11+225.63L111.11+225.63Z" opacity="0.2" fill="#000000"/>
<path d="M78.09+207.19L113.31+207.19L113.31+207.19L113.31+218.31L113.31+218.31L78.09+218.31L78.09+218.31L78.09+207.19L78.09+207.19Z" opacity="1" fill="#1082af"/>
<path d="M78.09+207.19L113.31+207.19L113.31+207.19L113.31+218.31L113.31+218.31L78.09+218.31L78.09+218.31L78.09+207.19L78.09+207.19Z" opacity="0.2" fill="#ffffff"/>
<path d="M78.14+225.24L113.24+225.24L113.24+225.24L113.24+228.82L113.24+228.82L78.14+228.82L78.14+228.82L78.14+225.24L78.14+225.24Z" opacity="1" fill="#1082af"/>
<path d="M78.14+225.24L113.24+225.24L113.24+225.24L113.24+228.82L113.24+228.82L78.14+228.82L78.14+228.82L78.14+225.24L78.14+225.24Z" opacity="0.1" fill="#000000"/>
<path d="M76.67+220.15L78.14+220.15L78.14+220.15L78.14+238.4L78.14+238.4L76.67+238.4L76.67+238.4L76.67+220.15L76.67+220.15Z" opacity="1" fill="#1082af"/>
<path d="M76.15+218.32L78.71+218.32L78.71+218.32L78.71+220.88L78.71+220.88L76.15+220.88L76.15+220.88L76.15+218.32L76.15+218.32Z" opacity="1" fill="#1082af"/>
<path d="M76.15+218.32L78.71+218.32L78.71+218.32L78.71+220.88L78.71+220.88L76.15+220.88L76.15+220.88L76.15+218.32L76.15+218.32Z" opacity="0.2" fill="#ffffff"/>
<path d="M78.7+218.32L80.7+218.32L80.7+218.32L80.7+220.88L80.7+220.88L78.7+220.88L78.7+220.88L78.7+218.32L78.7+218.32Z" opacity="1" fill="#1082af"/>
<path d="M114.72+238.4L113.25+238.4L113.25+238.4L113.25+220.15L113.25+220.15L114.72+220.15L114.72+220.15L114.72+238.4L114.72+238.4Z" opacity="1" fill="#1082af"/>
<path d="M115.24+220.87L112.69+220.87L112.69+220.87L112.69+218.31L112.69+218.31L115.24+218.31L115.24+218.31L115.24+220.87L115.24+220.87Z" opacity="1" fill="#1082af"/>
<path d="M115.24+220.87L112.69+220.87L112.69+220.87L112.69+218.31L112.69+218.31L115.24+218.31L115.24+218.31L115.24+220.87L115.24+220.87Z" opacity="0.2" fill="#ffffff"/>
<path d="M110.68+218.32L112.68+218.32L112.68+218.32L112.68+220.88L112.68+220.88L110.68+220.88L110.68+220.88L110.68+218.32L110.68+218.32Z" opacity="1" fill="#1082af"/>
<path d="M78.7+218.32L80.7+218.32L80.7+218.32L80.7+220.88L80.7+220.88L78.7+220.88L78.7+220.88L78.7+218.32L78.7+218.32Z" opacity="0.1" fill="#000000"/>
<path d="M110.68+218.32L112.68+218.32L112.68+218.32L112.68+220.88L112.68+220.88L110.68+220.88L110.68+220.88L110.68+218.32L110.68+218.32Z" opacity="0.1" fill="#000000"/>
<path d="M38.37+237.49L458.53+237.49L458.53+237.49L458.53+248.05L458.53+248.05L38.37+248.05L38.37+248.05L38.37+237.49L38.37+237.49Z" opacity="1" fill="#1082af"/>
<path d="M38.37+237.49L458.53+237.49L458.53+237.49L458.53+248.05L458.53+248.05L38.37+248.05L38.37+248.05L38.37+237.49L38.37+237.49Z" opacity="0.49" fill="#ffffff"/>
<path d="M60.03+237.49L61.03+237.49L61.03+237.49L61.03+248.8L61.03+248.8L60.03+248.8L60.03+248.8L60.03+237.49L60.03+237.49Z" opacity="1" fill="#ffffff"/>
<path d="M154.01+237.49L155.01+237.49L155.01+237.49L155.01+248.8L155.01+248.8L154.01+248.8L154.01+248.8L154.01+237.49L154.01+237.49Z" opacity="1" fill="#ffffff"/>
<path d="M247.99+237.49L248.99+237.49L248.99+237.49L248.99+248.8L248.99+248.8L247.99+248.8L247.99+248.8L247.99+237.49L247.99+237.49Z" opacity="1" fill="#ffffff"/>
<path d="M341.97+237.49L342.97+237.49L342.97+237.49L342.97+248.8L342.97+248.8L341.97+248.8L341.97+248.8L341.97+237.49L341.97+237.49Z" opacity="1" fill="#ffffff"/>
<path d="M435.95+237.49L436.95+237.49L436.95+237.49L436.95+248.8L436.95+248.8L435.95+248.8L435.95+248.8L435.95+237.49L435.95+237.49Z" opacity="1" fill="#ffffff"/>
<path d="M38.37+248.03L458.53+248.03L458.53+248.03L458.53+252.93L458.53+252.93L38.37+252.93L38.37+252.93L38.37+248.03L38.37+248.03Z" opacity="1" fill="#1082af"/>
<path d="M38.37+248.03L458.53+248.03L458.53+248.03L458.53+252.93L458.53+252.93L38.37+252.93L38.37+252.93L38.37+248.03L38.37+248.03Z" opacity="0.9" fill="#ffffff"/>
<path d="M354.1+283.94L354.23+283.94C355.572+283.255+357.063+282.911+358.57+282.94C360.34+282.94+362.04+283.15+363.81+283.13C364.865+283.131+365.915+282.986+366.93+282.7C367.177+282.557+367.411+282.393+367.63+282.21C368.03+281.88+368.15+281.49+367.41+281.15C362.843+279.049+357.439+280.182+354.1+283.94Z" opacity="1" fill="#263238"/>
<path d="M366.58+281.41L369.31+280.89C370.03+280.89+370.03+281.3+369.52+281.41C368.59+281.32+366.74+281.71+366.58+281.41Z" opacity="1" fill="#263238"/>
<g opacity="0.8">
<path d="M354.1+283.94L354.23+283.94C355.572+283.255+357.063+282.911+358.57+282.94C360.34+282.94+362.04+283.15+363.81+283.13C364.865+283.131+365.915+282.986+366.93+282.7C367.177+282.557+367.411+282.393+367.63+282.21C368.03+281.88+368.15+281.49+367.41+281.15C362.843+279.049+357.439+280.182+354.1+283.94Z" opacity="0.8" fill="#ffffff"/>
<path d="M366.58+281.41L369.31+280.89C370.03+280.89+370.03+281.3+369.52+281.41C368.59+281.32+366.74+281.71+366.58+281.41Z" opacity="0.8" fill="#ffffff"/>
</g>
<path d="M354.05+283.62L354.19+283.69C355.352+282.628+356.914+282.115+358.48+282.28C360.27+282.38+362+282.95+363.78+283.07C364.844+283.157+365.914+282.989+366.9+282.58C367.144+282.335+367.368+282.071+367.57+281.79C367.796+281.507+367.891+281.141+367.829+280.784C367.768+280.426+367.557+280.112+367.25+279.92C359.85+273.83+354.9+281.5+354.05+283.62Z" opacity="1" fill="#1082af"/>
<path d="M366.44+280.26L369.15+279.59C369.87+279.59+369.91+280.37+369.4+280.51C368.46+280.28+366.62+280.78+366.44+280.26Z" opacity="1" fill="#1082af"/>
<path d="M354.05+283.62L354.19+283.69C355.352+282.628+356.914+282.115+358.48+282.28C360.27+282.38+362+282.95+363.78+283.07C364.844+283.157+365.914+282.989+366.9+282.58C367.144+282.335+367.368+282.071+367.57+281.79C367.796+281.507+367.891+281.141+367.829+280.784C367.768+280.426+367.557+280.112+367.25+279.92C359.85+273.83+354.9+281.5+354.05+283.62Z" opacity="0.2" fill="#ffffff"/>
<path d="M201.6+276.37L201.32+276.37C199.32+278.04+196+279.12+192.93+279.6C189.4+280.16+185.93+280.14+182.42+280.67C180.31+280.961+178.25+281.544+176.3+282.4C175.847+282.756+175.422+283.147+175.03+283.57C174.32+284.34+174.2+285.16+175.78+285.62C185.484+288.547+195.962+284.793+201.6+276.37Z" opacity="1" fill="#263238"/>
<path d="M177.36+284.89L172.05+286.69C170.62+286.9+170.5+286.06+171.49+285.69C173.37+285.62+177+284.33+177.36+284.89Z" opacity="1" fill="#263238"/>
<g opacity="0.8">
<path d="M201.6+276.37L201.32+276.37C199.32+278.04+196+279.12+192.93+279.6C189.4+280.16+185.93+280.14+182.42+280.67C180.31+280.961+178.25+281.544+176.3+282.4C175.847+282.756+175.422+283.147+175.03+283.57C174.32+284.34+174.2+285.16+175.78+285.62C185.484+288.547+195.962+284.793+201.6+276.37Z" opacity="0.8" fill="#ffffff"/>
<path d="M177.36+284.89L172.05+286.69C170.62+286.9+170.5+286.06+171.49+285.69C173.37+285.62+177+284.33+177.36+284.89Z" opacity="0.8" fill="#ffffff"/>
</g>
<path d="M199.64+272.31C199.64+272.53+199.52+272.77+199.43+273.04C199.34+273.31+199.34+273.32+199.29+273.46C199.19+273.76+199.07+274.07+198.94+274.41L198.71+274.94C198.62+275.16+198.53+275.37+198.42+275.59C198.31+275.81+198.21+276.04+198.09+276.27C197.97+276.5+197.86+276.73+197.73+276.97C197.6+277.21+197.49+277.41+197.36+277.63C197.23+277.85+197.06+278.15+196.89+278.41L196.42+279.14C196.25+279.39+196.08+279.63+195.9+279.87C195.72+280.11+195.54+280.35+195.35+280.59C195.16+280.83+194.96+281.08+194.75+281.31C194.54+281.54+194.35+281.76+194.14+281.98C193.93+282.2+193.7+282.43+193.47+282.64C193.257+282.477+193.021+282.346+192.77+282.25C191.606+281.653+190.179+282.098+189.56+283.25C189.326+283.907+189.451+284.639+189.89+285.18C189.453+285.405+189.002+285.602+188.54+285.77L188.15+285.9L187.71+286.04C187.498+286.112+187.28+286.169+187.06+286.21C186.902+286.253+186.742+286.287+186.58+286.31C186.343+286.368+186.102+286.412+185.86+286.44L185.04+286.52C184.753+286.52+184.453+286.52+184.14+286.52C182.998+286.515+181.86+286.378+180.75+286.11C180.131+285.962+179.52+285.782+178.92+285.57C177.798+285.168+176.708+284.68+175.66+284.11C175.21+283.87+174.76+283.61+174.29+283.32C173.621+283.026+173.111+282.458+172.891+281.761C172.671+281.064+172.762+280.306+173.14+279.68C173.453+279.06+173.825+278.47+174.25+277.92C176.104+276.829+178.192+276.198+180.34+276.08C183.94+275.81+187.56+276.48+191.15+276.17C194.27+275.9+197.58+274.67+199.35+272.17L199.64+272.31Z" opacity="1" fill="#1082af"/>
<path d="M175.81+282.46L170.58+284.56C169.12+284.67+168.85+283.21+169.82+282.78C171.77+282.98+175.29+281.43+175.81+282.46Z" opacity="1" fill="#1082af"/>
<path d="M199.64+272.31C199.64+272.53+199.52+272.77+199.43+273.04C199.34+273.31+199.34+273.32+199.29+273.46C199.19+273.76+199.07+274.07+198.94+274.41L198.71+274.94C198.62+275.16+198.53+275.37+198.42+275.59C198.31+275.81+198.21+276.04+198.09+276.27C197.97+276.5+197.86+276.73+197.73+276.97C197.6+277.21+197.49+277.41+197.36+277.63C197.23+277.85+197.06+278.15+196.89+278.41L196.42+279.14C196.25+279.39+196.08+279.63+195.9+279.87C195.72+280.11+195.54+280.35+195.35+280.59C195.16+280.83+194.96+281.08+194.75+281.31C194.54+281.54+194.35+281.76+194.14+281.98C193.93+282.2+193.7+282.43+193.47+282.64C193.257+282.477+193.021+282.346+192.77+282.25C191.606+281.653+190.179+282.098+189.56+283.25C189.326+283.907+189.451+284.639+189.89+285.18C189.453+285.405+189.002+285.602+188.54+285.77L188.15+285.9L187.71+286.04C187.498+286.112+187.28+286.169+187.06+286.21C186.902+286.253+186.742+286.287+186.58+286.31C186.343+286.368+186.102+286.412+185.86+286.44L185.04+286.52C184.753+286.52+184.453+286.52+184.14+286.52C182.998+286.515+181.86+286.378+180.75+286.11C180.13+285.965+179.519+285.784+178.92+285.57C177.794+285.176+176.704+284.688+175.66+284.11C175.21+283.87+174.76+283.61+174.29+283.32C173.621+283.026+173.111+282.458+172.891+281.761C172.671+281.064+172.762+280.306+173.14+279.68C173.453+279.06+173.825+278.47+174.25+277.92C176.104+276.829+178.192+276.198+180.34+276.08C183.94+275.81+187.56+276.48+191.15+276.17C194.27+275.9+197.58+274.67+199.35+272.17L199.64+272.31Z" opacity="0.2" fill="#ffffff"/>
<path d="M300+276.59L300.16+276.52C301.976+277.196+303.932+277.406+305.85+277.13C308.11+276.9+310.23+276.32+312.48+276.06C313.826+275.895+315.189+275.915+316.53+276.12C316.876+276.265+317.21+276.435+317.53+276.63C318.09+276.99+318.3+277.48+317.41+278.01C311.929+281.43+304.854+280.853+300+276.59Z" opacity="1" fill="#263238"/>
<path d="M316.27+277.85L319.83+278.08C320.74+277.98+320.68+277.44+320.01+277.38C318.84+277.64+316.43+277.43+316.27+277.85Z" opacity="1" fill="#263238"/>
<g opacity="0.8">
<path d="M300+276.59L300.16+276.52C301.976+277.196+303.932+277.406+305.85+277.13C308.11+276.9+310.23+276.32+312.48+276.06C313.826+275.895+315.189+275.915+316.53+276.12C316.876+276.265+317.21+276.435+317.53+276.63C318.09+276.99+318.3+277.48+317.41+278.01C311.929+281.43+304.854+280.853+300+276.59Z" opacity="0.8" fill="#ffffff"/>
<path d="M316.27+277.85L319.83+278.08C320.74+277.98+320.68+277.44+320.01+277.38C318.84+277.64+316.43+277.43+316.27+277.85Z" opacity="0.8" fill="#ffffff"/>
</g>
<path d="M301+272.6L301.17+272.51C302.665+273.871+304.669+274.529+306.68+274.32C308.97+274.2+311.2+273.46+313.49+273.32C314.855+273.206+316.227+273.422+317.49+273.95C317.801+274.259+318.086+274.593+318.34+274.95C318.63+275.314+318.752+275.784+318.673+276.242C318.595+276.701+318.325+277.104+317.93+277.35C308.45+285.16+302.11+275.31+301+272.6Z" opacity="1" fill="#1082af"/>
<path d="M316.91+276.91L320.39+277.78C321.32+277.72+321.39+276.78+320.71+276.59C319.5+276.88+317.15+276.22+316.91+276.91Z" opacity="1" fill="#1082af"/>
<path d="M301+272.6L301.17+272.51C302.665+273.871+304.669+274.529+306.68+274.32C308.97+274.2+311.2+273.46+313.49+273.32C314.855+273.206+316.227+273.422+317.49+273.95C317.801+274.259+318.086+274.593+318.34+274.95C318.63+275.314+318.752+275.784+318.673+276.242C318.595+276.701+318.325+277.104+317.93+277.35C308.45+285.16+302.11+275.31+301+272.6Z" opacity="0.2" fill="#ffffff"/>
<path d="M240.91+274.39L240.75+274.32C238.925+274.934+236.974+275.076+235.08+274.73C232.84+274.42+230.76+273.73+228.52+273.44C227.196+273.236+225.851+273.209+224.52+273.36C224.176+273.494+223.842+273.651+223.52+273.83C222.95+274.17+222.72+274.64+223.59+275.21C228.914+278.779+235.947+278.446+240.91+274.39Z" opacity="1" fill="#263238"/>
<path d="M224.68+275.08L221.13+275.19C220.23+275.05+220.31+274.52+220.98+274.49C222.13+274.78+224.54+274.67+224.68+275.08Z" opacity="1" fill="#263238"/>
<g opacity="0.8">
<path d="M240.91+274.39L240.75+274.32C238.925+274.934+236.974+275.076+235.08+274.73C232.84+274.42+230.76+273.73+228.52+273.44C227.196+273.236+225.851+273.209+224.52+273.36C224.176+273.494+223.842+273.651+223.52+273.83C222.95+274.17+222.72+274.64+223.59+275.21C228.914+278.779+235.947+278.446+240.91+274.39Z" opacity="0.8" fill="#ffffff"/>
<path d="M224.68+275.08L221.13+275.19C220.23+275.05+220.31+274.52+220.98+274.49C222.13+274.78+224.54+274.67+224.68+275.08Z" opacity="0.8" fill="#ffffff"/>
</g>
<path d="M240.47+271.58C240.422+271.533+240.369+271.493+240.31+271.46C238.629+272.558+236.56+272.889+234.62+272.37C232.39+271.9+230.32+270.82+228.1+270.37C226.785+270.055+225.415+270.055+224.1+270.37C223.744+270.629+223.409+270.917+223.1+271.23C222.755+271.538+222.557+271.978+222.557+272.44C222.557+272.903+222.755+273.343+223.1+273.65C231.2+282.78+239+274.07+240.47+271.58Z" opacity="1" fill="#1082af"/>
<path d="M224.19+273.32L220.64+273.63C219.74+273.43+219.84+272.49+220.51+272.42C221.65+272.89+224.06+272.6+224.19+273.32Z" opacity="1" fill="#1082af"/>
<path d="M240.47+271.58C240.422+271.533+240.369+271.493+240.31+271.46C238.629+272.558+236.56+272.889+234.62+272.37C232.39+271.9+230.32+270.82+228.1+270.37C226.785+270.055+225.415+270.055+224.1+270.37C223.744+270.629+223.409+270.917+223.1+271.23C222.755+271.538+222.557+271.978+222.557+272.44C222.557+272.903+222.755+273.343+223.1+273.65C231.2+282.78+239+274.07+240.47+271.58Z" opacity="0.2" fill="#ffffff"/>
<path d="M148.05+279.57L147.86+279.57C146.27+278.339+144.396+277.528+142.41+277.21C140.1+276.74+137.82+276.67+135.5+276.21C134.113+275.963+132.767+275.526+131.5+274.91C131.21+274.661+130.94+274.39+130.69+274.1C130.25+273.57+130.19+273.03+131.24+272.77C137.729+271.087+144.556+273.849+148.05+279.57Z" opacity="1" fill="#263238"/>
<path d="M132.27+273.3L128.82+271.98C127.88+271.8+127.82+272.35+128.43+272.61C129.66+272.72+132+273.66+132.27+273.3Z" opacity="1" fill="#263238"/>
<g opacity="0.8">
<path d="M148.05+279.57L147.86+279.57C146.27+278.339+144.396+277.528+142.41+277.21C140.1+276.74+137.82+276.67+135.5+276.21C134.113+275.963+132.767+275.526+131.5+274.91C131.21+274.661+130.94+274.39+130.69+274.1C130.25+273.57+130.19+273.03+131.24+272.77C137.729+271.087+144.556+273.849+148.05+279.57Z" opacity="0.8" fill="#ffffff"/>
<path d="M132.27+273.3L128.82+271.98C127.88+271.8+127.82+272.35+128.43+272.61C129.66+272.72+132+273.66+132.27+273.3Z" opacity="0.8" fill="#ffffff"/>
</g>
<path d="M148.19+279.17L147.99+279.22C146.708+277.56+144.781+276.524+142.69+276.37C140.33+276.07+137.92+276.37+135.55+276.14C134.125+276.007+132.754+275.534+131.55+274.76C131.285+274.387+131.057+273.988+130.87+273.57C130.638+273.148+130.598+272.647+130.761+272.194C130.923+271.74+131.273+271.379+131.72+271.2C142.9+264.96+147.58+276.19+148.19+279.17Z" opacity="1" fill="#1082af"/>
<path d="M132.74+271.83L129.34+270.31C128.34+270.2+128.16+271.15+128.79+271.46C130.08+271.39+132.36+272.5+132.74+271.83Z" opacity="1" fill="#1082af"/>
<path d="M148.19+279.17L147.99+279.22C146.708+277.56+144.781+276.524+142.69+276.37C140.33+276.07+137.92+276.37+135.55+276.14C134.125+276.007+132.754+275.534+131.55+274.76C131.285+274.387+131.057+273.988+130.87+273.57C130.638+273.148+130.598+272.647+130.761+272.194C130.923+271.74+131.273+271.379+131.72+271.2C142.9+264.96+147.58+276.19+148.19+279.17Z" opacity="0.2" fill="#ffffff"/>
</g>
</g>
</svg>
